# xmcd CD database file
#
# Track frame offsets:
#	150
#	19790
#	36413
#	56833
#	73568
#
# Disc length: 1016 seconds
#
# Revision: 0
# Processed by: cddbd v1.5.2PL0 Copyright (c) Steve Scherf et al.
# Submitted via: CDex 1.70beta3
#
DISCID=4203f605
DTITLE=Futon. - Cartoon Council 9
DYEAR=2013
DGENRE=Jazz
TTITLE0=ginrei - indivisível
TTITLE1=ginrei - carmesí y sal
TTITLE2=ginrei - fole
TTITLE3=ginrei - carabinier
TTITLE4=ginrei - outro
EXTD=YEAR: 2013
EXTT0=
EXTT1=
EXTT2=
EXTT3=
EXTT4=
PLAYORDER=
